<?xml version="1.0" encoding="iso-8859-1"?>
<!-- Uploaded to: SVG Repo, www.svgrepo.com, Generator: SVG Repo Mixer Tools -->
<!DOCTYPE svg PUBLIC "-//W3C//DTD SVG 1.1//EN" "http://www.w3.org/Graphics/SVG/1.1/DTD/svg11.dtd">
<svg fill="#000000" height="800px" width="800px" version="1.1" id="Capa_1" xmlns="http://www.w3.org/2000/svg" xmlns:xlink="http://www.w3.org/1999/xlink" 
	 viewBox="0 0 242.667 242.667" xml:space="preserve">
<path d="M96.856,112.444v30.862H64.775C69.042,127.083,80.417,115.958,96.856,112.444z M242.667,0v242.667H0V0H242.667z
	 M208.785,155.275c0-31.693-39.153-57.386-87.452-57.386c-1.36,0-2.711,0.027-4.056,0.067V82.301l-20.421,4.136v13.748
	c-36.38,6.949-62.975,28.975-62.975,55.091c0,1.717,0.137,3.413,0.362,5.092h62.613h20.421v-17.061v-35.554
	c1.343-0.083,2.691-0.146,4.056-0.146c25.566,0,47.451,14.76,56.558,35.7h-32.179V123.66l-20.421-4.136v23.782v17.061h20.421h62.712
	C208.648,158.688,208.785,156.992,208.785,155.275z"/>
</svg>